<svg width="58" height="54" viewBox="0 0 58 54" fill="none" xmlns="http://www.w3.org/2000/svg">
<g clip-path="url(#clip0_1_151)">
<path fill-rule="evenodd" clip-rule="evenodd" d="M58.0755 10.0044C49.4762 14.2232 45.1765 19.1801 45.1765 24.8755C48.8418 25.2974 51.8727 26.7915 54.2693 29.3579C56.6658 31.9243 57.864 34.895 57.864 38.27C57.864 41.856 56.701 44.8794 54.375 47.3403C52.0489 49.8013 49.1238 51.0317 45.5995 51.0317C41.6522 51.0317 38.2337 49.4321 35.3437 46.2329C32.4538 43.0337 31.0088 39.1489 31.0088 34.5786C31.0088 20.8676 38.6917 10.1451 54.0578 2.41064L58.0755 10.0044ZM27.112 10.0044C18.4421 14.2232 14.1073 19.1801 14.1073 24.8755C17.8431 25.2974 20.9092 26.7915 23.3057 29.3579C25.7022 31.9243 26.9005 34.895 26.9005 38.27C26.9005 41.856 25.7199 44.8794 23.3586 47.3403C20.9973 49.8013 18.0545 51.0317 14.5302 51.0317C10.5829 51.0317 7.18202 49.4321 4.32732 46.2329C1.47262 43.0337 0.0452881 39.1489 0.0452881 34.5786C0.0452881 20.8676 7.69296 10.1451 22.9885 2.41064L27.112 10.0044Z" fill="#D6D6D6"/>
</g>
<defs>
<clipPath id="clip0_1_151">
<rect width="58" height="54" fill="white"/>
</clipPath>
</defs>
</svg>
